<svg width="62" height="50" viewBox="0 0 62 50" fill="none" xmlns="http://www.w3.org/2000/svg">
<rect x="3.48933" y="20.5845" width="49" height="25" transform="rotate(-17.9652 3.48933 20.5845)" stroke="#EAE8FE" stroke-width="2"/>
<rect x="7.26896" y="22.513" width="43" height="19" transform="rotate(-17.9652 7.26896 22.513)" stroke="#EAE8FE" stroke-width="2"/>
<path d="M31.4388 30.2468L30.2513 26.5845L26.7754 27.7116L26.3479 26.3932L31.1156 24.8473L30.8435 24.0083L20.3361 27.4153L20.6081 28.2543L25.3358 26.7213L25.7633 28.0398L22.3008 29.1625L23.4883 32.8248L31.4388 30.2468ZM30.1679 29.7317L24.2417 31.6533L23.5983 29.669L29.5245 27.7474L30.1679 29.7317ZM29.3434 23.3761L29.0714 22.5371L27.3135 23.1071L27.0465 21.1038L25.9599 21.3384L26.3413 23.4224L23.5713 24.3205L22.7148 22.4053L21.7016 22.8663L22.6124 24.6314L20.8412 25.2058L21.1132 26.0448L29.3434 23.3761ZM28.3654 20.0875L28.0933 19.2485L19.7034 21.9689L19.9754 22.8079L28.3654 20.0875ZM43.7198 26.353L43.4435 25.5007L36.5317 27.7418L36.1129 26.45L42.5984 24.3471L41.6873 21.5371L34.1497 23.9812L34.426 24.8335L40.9515 22.7176L41.3315 23.8896L34.846 25.9925L35.796 28.9223L43.7198 26.353ZM30.7465 19.4773L33.4633 18.5964L33.5885 18.9826C34.0761 20.5317 33.0023 22.4399 31.7188 23.4743L32.5152 24.0696C33.5944 23.131 34.6174 21.4747 34.5829 20.2791C35.4035 21.1757 36.9658 21.7729 38.218 21.8673L38.5226 20.9002C37.0483 20.8925 35.1552 20.1377 34.6449 18.6548L34.502 18.2595L37.1655 17.3959L36.8892 16.5436L30.4702 18.625L30.7465 19.4773ZM41.4754 20.9288L39.5322 14.936L38.5201 15.2642L39.3923 17.9543L37.1284 18.6884L37.4004 19.5274L39.6644 18.7933L40.4632 21.257L41.4754 20.9288Z" fill="#EAE8FE"/>
</svg>
